<?xml version="1.0" encoding="UTF-8"?>
<svg width="1024" height="1024" viewBox="0 0 1024 1024" xmlns="http://www.w3.org/2000/svg">
  <defs>
    <!-- Monochrome background -->
    <radialGradient id="monoBackground" cx="50%" cy="50%">
      <stop offset="0%" style="stop-color:#1a1a1a;stop-opacity:1" />
      <stop offset="70%" style="stop-color:#1a1a1a;stop-opacity:0.9" />
      <stop offset="100%" style="stop-color:#1a1a1a;stop-opacity:0.7" />
    </radialGradient>
    
    <!-- White gradient for zen circle -->
    <linearGradient id="monoWhite" x1="0%" y1="0%" x2="100%" y2="100%">
      <stop offset="0%" style="stop-color:#ffffff;stop-opacity:1" />
      <stop offset="100%" style="stop-color:#e5e5e5;stop-opacity:1" />
    </linearGradient>
    
    <!-- Gray for connections -->
    <linearGradient id="monoGray" x1="0%" y1="0%" x2="100%" y2="100%">
      <stop offset="0%" style="stop-color:#9ca3af;stop-opacity:0.8" />
      <stop offset="100%" style="stop-color:#6b7280;stop-opacity:0.8" />
    </linearGradient>
    
    <!-- Subtle glow effect -->
    <filter id="monoGlow" x="-20%" y="-20%" width="140%" height="140%">
      <feGaussianBlur stdDeviation="4" result="coloredBlur"/>
      <feMerge> 
        <feMergeNode in="coloredBlur"/>
        <feMergeNode in="SourceGraphic"/>
      </feMerge>
    </filter>
  </defs>
  
  <!-- Background circle -->
  <circle cx="512" cy="512" r="512" fill="url(#monoBackground)"/>
  
  <!-- Neural connections radiating from center -->
  <g transform="translate(512,512)" stroke="url(#monoGray)" stroke-width="2" fill="none">
    <!-- Primary cardinal directions -->
    <line x1="0" y1="-170" x2="0" y2="-290" opacity="0.7"/>
    <line x1="170" y1="0" x2="290" y2="0" opacity="0.7"/>
    <line x1="0" y1="170" x2="0" y2="290" opacity="0.7"/>
    <line x1="-170" y1="0" x2="-290" y2="0" opacity="0.7"/>
    
    <!-- Secondary diagonal directions -->
    <line x1="120" y1="-120" x2="205" y2="-205" opacity="0.5"/>
    <line x1="120" y1="120" x2="205" y2="205" opacity="0.5"/>
    <line x1="-120" y1="120" x2="-205" y2="205" opacity="0.5"/>
    <line x1="-120" y1="-120" x2="-205" y2="-205" opacity="0.5"/>
    
    <!-- Neural connection nodes at endpoints -->
    <circle cx="0" cy="-290" r="4" fill="#ffffff" opacity="0.6"/>
    <circle cx="290" cy="0" r="4" fill="#ffffff" opacity="0.6"/>
    <circle cx="0" cy="290" r="4" fill="#ffffff" opacity="0.6"/>
    <circle cx="-290" cy="0" r="4" fill="#ffffff" opacity="0.6"/>
    <circle cx="205" cy="-205" r="3" fill="#9ca3af" opacity="0.4"/>
    <circle cx="205" cy="205" r="3" fill="#9ca3af" opacity="0.4"/>
    <circle cx="-205" cy="205" r="3" fill="#9ca3af" opacity="0.4"/>
    <circle cx="-205" cy="-205" r="3" fill="#9ca3af" opacity="0.4"/>
  </g>
  
  <!-- Central Zen Circle (Enso) -->
  <g transform="translate(512,512)">
    <!-- Main zen circle with subtle gap -->
    <path d="M -170,0 A 170,170 0 1,1 150,60" 
          stroke="url(#monoWhite)" 
          stroke-width="12" 
          fill="none" 
          stroke-linecap="round"
          filter="url(#monoGlow)"
          opacity="0.95"/>
    
    <!-- Inner energy ring for depth -->
    <circle cx="0" cy="0" r="145" 
            stroke="#ffffff" 
            stroke-width="2" 
            fill="none" 
            opacity="0.2"/>
    
    <!-- Zen center point -->
    <circle cx="0" cy="0" r="8" fill="#ffffff" opacity="0.5"/>
  </g>
</svg>