<?xml version="1.0" encoding="UTF-8"?>
<svg width="1024" height="1024" viewBox="0 0 1024 1024" xmlns="http://www.w3.org/2000/svg">
  <defs>
    <!-- Modern gradient background -->
    <linearGradient id="bgGradient" x1="0%" y1="0%" x2="100%" y2="100%">
      <stop offset="0%" style="stop-color:#667eea;stop-opacity:1" />
      <stop offset="50%" style="stop-color:#764ba2;stop-opacity:1" />
      <stop offset="100%" style="stop-color:#f093fb;stop-opacity:1" />
    </linearGradient>
    
    <!-- AI circuit pattern gradient -->
    <linearGradient id="circuitGradient" x1="0%" y1="0%" x2="100%" y2="100%">
      <stop offset="0%" style="stop-color:#74c0fc;stop-opacity:1" />
      <stop offset="100%" style="stop-color:#51cf66;stop-opacity:1" />
    </linearGradient>
    
    <!-- Inner glow -->
    <radialGradient id="innerGlow" cx="50%" cy="30%">
      <stop offset="0%" style="stop-color:#ffffff;stop-opacity:0.3" />
      <stop offset="100%" style="stop-color:#ffffff;stop-opacity:0" />
    </radialGradient>
    
    <!-- Drop shadow filter -->
    <filter id="dropshadow" x="-20%" y="-20%" width="140%" height="140%">
      <feDropShadow dx="0" dy="8" stdDeviation="16" flood-color="#000000" flood-opacity="0.3"/>
    </filter>
    
    <!-- Glow filter -->
    <filter id="glow" x="-50%" y="-50%" width="200%" height="200%">
      <feGaussianBlur stdDeviation="4" result="coloredBlur"/>
      <feMerge> 
        <feMergeNode in="coloredBlur"/>
        <feMergeNode in="SourceGraphic"/>
      </feMerge>
    </filter>
  </defs>
  
  <!-- Rounded rectangle background with modern gradient -->
  <rect x="64" y="64" width="896" height="896" rx="200" ry="200" 
        fill="url(#bgGradient)" filter="url(#dropshadow)"/>
  
  <!-- Inner glow overlay -->
  <rect x="64" y="64" width="896" height="896" rx="200" ry="200" 
        fill="url(#innerGlow)"/>
  
  <!-- Main AI brain/circuit design -->
  <g transform="translate(512,512)">
    
    <!-- Central AI brain circle -->
    <circle cx="0" cy="0" r="180" fill="url(#circuitGradient)" opacity="0.9" filter="url(#glow)"/>
    
    <!-- Neural network connections -->
    <g stroke="url(#circuitGradient)" stroke-width="8" fill="none" opacity="0.7">
      <!-- Main connection lines -->
      <path d="M -120,-80 Q 0,-160 120,-80"/>
      <path d="M -120,80 Q 0,160 120,80"/>
      <path d="M -160,0 Q -200,-100 -120,-160"/>
      <path d="M 160,0 Q 200,-100 120,-160"/>
      <path d="M -160,0 Q -200,100 -120,160"/>
      <path d="M 160,0 Q 200,100 120,160"/>
      
      <!-- Circuit nodes -->
      <circle cx="-120" cy="-80" r="12" fill="#74c0fc"/>
      <circle cx="120" cy="-80" r="12" fill="#74c0fc"/>
      <circle cx="-120" cy="80" r="12" fill="#74c0fc"/>
      <circle cx="120" cy="80" r="12" fill="#74c0fc"/>
      <circle cx="-120" cy="-160" r="8" fill="#51cf66"/>
      <circle cx="120" cy="-160" r="8" fill="#51cf66"/>
      <circle cx="-120" cy="160" r="8" fill="#51cf66"/>
      <circle cx="120" cy="160" r="8" fill="#51cf66"/>
    </g>
    
    <!-- Central AI symbol -->
    <g fill="#ffffff" filter="url(#glow)">
      <!-- AI letters -->
      <text x="0" y="20" text-anchor="middle" font-family="SF Pro Display, -apple-system, sans-serif" 
            font-size="120" font-weight="700" letter-spacing="-4">AI</text>
    </g>
    
    <!-- Multimedia symbols around the center -->
    <g fill="#ffffff" opacity="0.8" font-family="SF Pro Display, -apple-system, sans-serif" font-size="36">
      <!-- Code symbol -->
      <text x="-200" y="-120" text-anchor="middle">&lt;/&gt;</text>
      
      <!-- Image symbol -->
      <text x="200" y="-120" text-anchor="middle">🖼</text>
      
      <!-- Document symbol -->
      <text x="-200" y="140" text-anchor="middle">📄</text>
      
      <!-- Analytics symbol -->
      <text x="200" y="140" text-anchor="middle">📊</text>
      
      <!-- Automation symbol -->
      <text x="0" y="-240" text-anchor="middle">⚡</text>
      
      <!-- Management symbol -->
      <text x="0" y="280" text-anchor="middle">⚙️</text>
    </g>
  </g>
  
  <!-- App name at bottom -->
  <text x="512" y="900" text-anchor="middle" fill="#ffffff" opacity="0.9"
        font-family="SF Pro Display, -apple-system, sans-serif" font-size="72" font-weight="600">
    AiMM
  </text>
</svg>